<?xml version="1.0" standalone="no"?>
<!DOCTYPE svg PUBLIC "-//W3C//DTD SVG 20010904//EN"
 "http://www.w3.org/TR/2001/REC-SVG-20010904/DTD/svg10.dtd">
<svg version="1.0" xmlns="http://www.w3.org/2000/svg"
 width="944.000000pt" height="944.000000pt" viewBox="0 0 944.000000 944.000000"
 preserveAspectRatio="xMidYMid meet">
<metadata>
Created by potrace 1.14, written by Peter Selinger 2001-2017
</metadata>
<g transform="translate(0.000000,944.000000) scale(0.100000,-0.100000)"
fill="#000000" stroke="none">
<path d="M2875 7901 c-3 -5 -14 -8 -25 -6 -11 2 -20 1 -20 -3 0 -4 -17 -8 -38
-9 -20 -1 -57 -4 -82 -8 -25 -3 -54 -7 -65 -8 -11 -2 -25 -6 -31 -9 -6 -4 -21
-6 -33 -3 -11 2 -21 0 -21 -5 0 -5 -7 -7 -15 -4 -8 4 -21 2 -28 -3 -6 -5 -25
-10 -42 -12 -16 -2 -34 -6 -40 -10 -9 -7 -41 -12 -92 -15 -11 0 -19 -4 -16 -8
2 -5 -4 -9 -14 -10 -27 -2 -36 -4 -63 -15 -14 -6 -28 -9 -32 -6 -5 2 -8 0 -8
-4 0 -5 -12 -10 -27 -11 -15 -1 -30 -8 -35 -15 -4 -6 -8 -9 -8 -4 0 4 -16 1
-35 -7 -19 -8 -35 -12 -35 -8 0 4 -6 0 -13 -8 -11 -14 -28 -20 -69 -23 -10 -1
-18 -4 -18 -8 0 -7 -39 -22 -52 -20 -5 1 -8 -4 -8 -9 0 -6 -4 -10 -9 -10 -5 0
-22 -5 -38 -11 -15 -6 -30 -10 -33 -10 -3 0 -12 -6 -20 -13 -17 -15 -52 -30
-62 -28 -5 1 -8 -3 -8 -9 0 -5 -4 -7 -10 -4 -5 3 -10 1 -10 -6 0 -7 -3 -10 -6
-6 -4 3 -13 -1 -21 -9 -8 -8 -19 -12 -24 -9 -5 4 -9 1 -9 -5 0 -6 -4 -8 -10
-5 -5 3 -10 2 -10 -3 0 -5 -13 -15 -30 -22 -16 -7 -30 -17 -30 -22 0 -5 -4 -7
-9 -4 -5 3 -14 -1 -21 -9 -7 -8 -16 -13 -20 -10 -5 3 -16 -5 -25 -17 -8 -13
-19 -22 -23 -22 -12 2 -52 -19 -52 -28 0 -4 -5 -8 -11 -8 -11 0 -79 -48 -91
-65 -4 -5 -8 -6 -8 -2 0 4 -12 -3 -27 -17 -15 -14 -31 -22 -36 -19 -6 3 -7 2
-4 -4 4 -5 -5 -16 -18 -23 -14 -7 -25 -17 -25 -22 0 -5 -4 -6 -10 -3 -5 3 -10
2 -10 -4 0 -5 -13 -18 -29 -27 -17 -10 -28 -21 -25 -26 3 -4 0 -8 -6 -8 -6 0
-22 -10 -36 -22 -49 -44 -295 -288 -290 -288 3 0 -12 -18 -34 -40 -22 -22 -36
-40 -33 -40 4 0 -2 -8 -13 -19 -25 -24 -54 -60 -54 -66 0 -3 -8 -14 -17 -24
-33 -37 -43 -50 -43 -61 0 -5 -4 -10 -9 -10 -6 0 -20 -18 -32 -40 -13 -22 -27
-40 -33 -40 -5 0 -7 -3 -3 -6 3 -3 -1 -13 -9 -22 -8 -10 -14 -20 -14 -25 1
-12 -24 -35 -32 -30 -4 2 -5 -3 -2 -11 3 -9 1 -16 -6 -16 -6 0 -8 -4 -5 -10 3
-5 1 -10 -4 -10 -6 0 -10 -6 -9 -12 2 -7 -2 -12 -9 -11 -7 2 -10 -4 -7 -12 4
-8 1 -15 -5 -15 -6 0 -11 -6 -11 -14 0 -7 -7 -19 -15 -26 -8 -7 -13 -16 -10
-20 3 -5 -2 -15 -11 -24 -8 -9 -12 -20 -9 -26 3 -5 2 -10 -3 -10 -5 0 -15 -13
-22 -30 -7 -16 -17 -30 -22 -30 -5 0 -6 -4 -3 -10 3 -5 2 -10 -4 -10 -5 0 -8
-9 -6 -20 2 -11 0 -20 -4 -20 -8 0 -32 -48 -34 -67 0 -4 -7 -14 -14 -22 -8 -7
-12 -20 -9 -27 3 -8 0 -14 -6 -14 -6 0 -8 -3 -5 -7 4 -3 2 -12 -4 -20 -6 -7
-8 -13 -3 -13 5 0 3 -4 -4 -8 -7 -5 -14 -18 -17 -30 -2 -11 -8 -29 -14 -40 -6
-11 -7 -22 -4 -26 3 -3 1 -6 -5 -6 -7 0 -11 -3 -10 -7 2 -13 -14 -67 -25 -80
-5 -7 -7 -13 -3 -13 4 0 -1 -14 -10 -31 -11 -23 -12 -29 -2 -23 11 6 11 5 0
-9 -8 -9 -11 -21 -7 -27 3 -5 2 -10 -3 -10 -10 0 -37 -98 -46 -170 -2 -14 -6
-32 -9 -40 -10 -24 -19 -72 -20 -107 -1 -18 -4 -33 -7 -33 -4 0 -7 -15 -8 -32
0 -18 -3 -42 -5 -54 -8 -33 -20 -135 -21 -181 0 -24 -3 -43 -6 -43 -10 0 -6
-55 5 -62 6 -5 6 -8 -2 -8 -15 0 -14 -362 1 -372 7 -5 6 -8 -2 -8 -8 0 -10 -5
-6 -12 4 -6 9 -34 11 -62 2 -28 6 -73 9 -101 3 -27 6 -60 7 -72 1 -13 4 -23 7
-23 3 0 6 -10 7 -22 2 -52 8 -98 14 -98 4 0 8 -24 10 -73 0 -9 3 -16 7 -13 4
2 8 -8 9 -22 3 -48 7 -72 13 -72 3 0 7 -14 8 -31 1 -18 6 -37 9 -43 4 -6 9
-17 10 -23 2 -7 4 -19 6 -25 1 -7 6 -19 10 -25 5 -7 6 -17 2 -22 -3 -5 0 -13
6 -16 5 -4 8 -13 5 -20 -3 -8 -1 -15 4 -17 6 -2 11 -15 12 -30 1 -15 6 -24 10
-22 4 3 8 -6 8 -20 0 -14 5 -28 10 -31 6 -4 8 -10 5 -15 -3 -5 -1 -11 5 -15 6
-4 8 -11 5 -16 -4 -5 -1 -9 4 -9 6 0 11 -9 11 -21 0 -11 7 -27 15 -36 8 -8 13
-18 10 -23 -3 -5 6 -29 20 -54 14 -25 25 -50 25 -57 0 -6 8 -18 17 -26 10 -8
12 -11 4 -8 -9 6 -9 1 3 -17 9 -14 14 -28 11 -31 -3 -4 -2 -5 1 -3 3 3 22 -28
42 -67 19 -40 38 -74 42 -77 3 -3 14 -22 23 -42 10 -20 23 -43 30 -50 7 -7 23
-34 37 -60 13 -26 28 -44 32 -42 4 3 8 -2 8 -10 0 -9 5 -16 11 -16 5 0 7 -4 4
-10 -3 -5 -1 -10 4 -10 6 0 10 -6 8 -12 -1 -7 4 -12 11 -11 6 2 12 -4 12 -13
0 -9 11 -27 25 -40 14 -13 24 -25 23 -27 -3 -3 35 -53 74 -100 10 -11 18 -24
18 -29 0 -4 7 -8 16 -8 8 0 13 -4 9 -9 -3 -5 5 -17 17 -25 12 -9 19 -16 15
-16 -3 0 9 -16 28 -36 19 -20 35 -40 35 -45 0 -6 4 -7 10 -4 5 3 15 -5 22 -19
6 -14 14 -26 17 -26 4 0 45 -37 93 -82 47 -46 105 -99 129 -118 23 -19 53 -45
65 -57 13 -13 27 -23 33 -23 5 0 23 -12 39 -28 44 -40 60 -52 72 -52 5 0 10
-4 10 -10 0 -5 7 -10 15 -10 8 0 15 -4 15 -9 0 -5 16 -16 35 -25 19 -9 39 -24
44 -34 6 -9 11 -13 11 -9 0 11 60 -25 60 -36 0 -4 5 -5 10 -2 6 3 10 1 10 -5
0 -6 4 -9 9 -6 5 3 12 -1 15 -10 4 -9 9 -14 13 -11 3 4 18 -2 33 -13 16 -11
33 -20 39 -20 6 0 11 -4 11 -10 0 -5 9 -10 20 -10 11 0 20 -5 20 -11 0 -5 5
-7 10 -4 6 3 10 1 10 -5 0 -6 5 -8 10 -5 6 3 10 3 10 -2 0 -4 11 -13 25 -20
19 -8 24 -8 19 0 -3 7 2 3 11 -8 9 -11 18 -19 20 -18 3 1 24 -6 47 -17 23 -10
46 -16 50 -14 4 3 8 1 8 -4 0 -8 24 -19 43 -20 1 -1 15 -7 31 -16 16 -8 33
-13 38 -10 4 3 8 0 8 -6 0 -6 5 -8 10 -5 6 3 10 1 10 -4 0 -6 3 -10 8 -9 11 3
96 -24 106 -34 6 -4 20 -8 33 -8 13 0 23 -4 23 -9 0 -4 11 -7 25 -6 14 2 25
-1 25 -6 0 -6 5 -7 10 -4 6 3 10 0 10 -7 0 -9 3 -9 10 2 6 10 10 11 10 3 0 -7
3 -12 8 -11 4 1 26 -4 50 -11 24 -7 57 -14 75 -15 18 -2 39 -7 48 -10 9 -4 27
-8 41 -10 13 -1 28 -4 33 -7 6 -3 26 -6 45 -8 19 -2 38 -8 42 -15 6 -8 8 -7 8
2 0 8 5 10 13 5 6 -4 30 -8 52 -10 22 -1 41 -3 43 -4 1 -1 10 -2 20 -3 9 -1
23 -5 30 -9 7 -5 12 -4 12 3 0 6 5 8 11 4 6 -3 43 -8 82 -10 40 -2 78 -6 85
-9 6 -2 12 1 12 8 0 8 4 6 10 -3 9 -13 10 -13 10 0 0 11 2 12 8 3 8 -13 29
-12 51 1 9 6 12 5 7 -2 -9 -14 66 -11 76 3 5 6 8 6 8 -2 0 -7 16 -10 40 -10
22 1 40 5 40 10 0 4 5 7 11 7 5 0 7 -5 4 -10 -4 -7 2 -9 18 -5 13 4 55 8 93 9
39 1 75 6 82 10 7 4 12 2 12 -6 0 -8 3 -9 8 -3 4 6 21 11 37 12 36 2 82 8 150
18 28 5 57 9 65 10 8 1 22 5 30 8 16 7 75 18 103 20 9 1 17 6 17 11 0 5 3 6 7
3 3 -4 13 -1 21 6 13 10 14 9 8 -1 -6 -10 0 -9 23 2 17 9 31 13 31 9 0 -4 5
-2 12 5 7 7 21 12 33 12 12 0 25 4 31 10 5 5 22 11 37 12 15 1 27 6 27 9 0 4
14 10 30 14 17 4 30 11 30 16 0 5 3 8 8 7 4 -1 29 8 56 20 27 12 51 22 53 22
2 0 11 7 20 15 8 8 19 13 24 10 5 -4 9 -1 9 5 0 6 5 8 10 5 6 -3 10 -2 10 3 0
7 42 32 60 35 3 0 11 6 17 13 7 7 35 27 63 45 27 18 50 36 50 41 0 4 5 8 11 8
7 0 22 11 35 26 13 14 24 21 24 17 0 -4 5 0 11 10 6 9 14 15 19 12 5 -3 11 4
15 15 3 11 9 19 13 17 4 -1 8 2 9 6 1 5 15 18 30 30 15 12 38 33 51 47 12 14
33 37 46 52 13 14 27 24 30 21 3 -4 6 -1 6 5 0 24 17 11 30 -23 8 -19 17 -35
22 -35 4 0 8 -9 8 -21 0 -11 5 -17 10 -14 6 3 10 -3 10 -15 0 -12 4 -18 10
-15 5 3 10 -1 10 -9 0 -9 5 -16 11 -16 5 0 7 -5 4 -10 -3 -6 0 -10 8 -10 7 0
19 -11 25 -25 6 -14 16 -25 22 -25 5 0 10 -5 10 -11 0 -11 68 -79 79 -79 3 0
15 -14 26 -30 11 -16 25 -30 31 -30 5 0 20 -9 32 -20 12 -11 24 -20 27 -20 3
0 18 -11 33 -25 15 -14 32 -25 39 -25 7 0 13 -5 13 -11 0 -5 5 -7 10 -4 6 3
10 2 10 -3 0 -5 14 -15 31 -22 17 -7 37 -20 45 -27 8 -8 20 -16 27 -18 37 -9
57 -18 57 -27 0 -5 6 -8 13 -7 6 1 29 -5 49 -14 21 -10 44 -17 51 -17 8 0 17
-3 21 -7 4 -5 12 -9 17 -9 5 -1 10 -2 12 -4 1 -1 11 -3 22 -5 11 -2 40 -8 64
-13 25 -6 51 -8 58 -5 7 3 13 1 13 -5 0 -5 26 -9 59 -8 33 0 57 -2 55 -5 -3
-6 325 -5 336 1 3 1 8 2 13 1 4 0 7 4 7 10 0 5 5 7 10 4 6 -3 10 1 10 9 0 9 5
16 10 16 6 0 10 9 10 20 0 11 5 20 10 20 7 0 7 6 0 20 -8 15 -8 20 2 20 10 0
10 2 -1 9 -10 7 -10 10 -1 13 10 3 10 9 2 25 -6 11 -9 23 -6 26 11 10 9 167
-1 167 -5 0 -3 5 5 10 11 7 11 10 2 10 -7 0 -10 5 -7 11 11 17 11 89 0 89 -5
0 -3 5 5 10 11 7 11 10 2 10 -7 0 -10 5 -7 11 11 17 11 89 0 89 -5 0 -3 5 5
10 11 7 11 10 2 10 -7 0 -10 5 -7 11 11 17 11 89 0 89 -5 0 -3 5 5 10 11 7 11
10 2 10 -7 0 -10 5 -7 11 11 17 11 89 0 89 -5 0 -3 5 5 10 11 7 11 10 2 10 -7
0 -10 5 -7 11 11 17 11 89 0 89 -5 0 -3 5 5 10 11 7 11 10 2 10 -7 0 -10 5 -7
11 11 17 11 89 0 89 -5 0 -3 5 5 10 11 7 11 10 2 10 -7 0 -10 5 -7 11 11 17
11 89 0 89 -5 0 -3 5 5 10 11 7 11 10 2 10 -7 0 -10 5 -7 11 11 17 11 89 0 89
-5 0 -3 5 5 10 11 7 11 10 2 10 -7 0 -10 5 -7 11 11 17 11 89 0 89 -5 0 -3 5
5 10 11 7 11 10 2 10 -7 0 -10 5 -7 11 11 17 11 89 0 89 -5 0 -3 5 5 10 11 7
11 10 2 10 -7 0 -10 5 -7 11 11 17 11 89 0 89 -5 0 -3 5 5 10 11 7 11 10 2 10
-7 0 -10 5 -7 11 11 17 11 89 0 89 -5 0 -3 5 5 10 11 7 11 10 2 10 -7 0 -10 5
-7 11 11 17 11 89 0 89 -5 0 -3 5 5 10 11 7 11 10 2 10 -7 0 -10 5 -7 11 11
17 11 89 0 89 -5 0 -3 5 5 10 11 7 11 10 2 10 -7 0 -10 5 -7 11 11 17 11 89 0
89 -5 0 -3 5 5 10 11 7 11 10 2 10 -7 0 -10 5 -7 11 11 17 11 89 0 89 -5 0 -3
5 5 10 11 7 11 10 2 10 -7 0 -10 5 -7 11 11 17 11 89 0 89 -5 0 -3 5 5 10 11
7 11 10 2 10 -7 0 -10 5 -7 11 11 17 11 89 0 89 -5 0 -3 5 5 10 11 7 11 10 2
10 -7 0 -10 5 -7 11 11 17 11 89 0 89 -5 0 -3 5 5 10 11 7 11 10 2 10 -7 0
-10 5 -7 11 8 13 12 109 5 109 -3 0 -6 9 -6 20 0 11 5 20 11 20 5 0 3 5 -5 10
-8 5 -10 10 -5 10 7 0 8 24 5 65 -3 40 -2 67 5 69 6 3 6 5 -1 5 -11 1 -10 64
2 83 4 6 3 8 -3 5 -6 -4 -9 21 -9 68 1 41 -1 75 -4 75 -3 0 -6 9 -6 20 0 11 4
20 8 20 10 0 6 23 -6 32 -6 4 -5 12 2 20 7 9 8 18 3 24 -5 5 -12 54 -16 109
-4 55 -8 116 -11 135 -2 19 -5 46 -7 60 -1 14 -6 31 -10 38 -5 7 -3 12 4 12 8
0 8 4 1 13 -6 7 -11 22 -11 32 0 21 -6 60 -15 108 -12 58 -17 83 -22 112 -3
17 -10 31 -15 33 -5 2 -5 11 1 22 6 12 6 20 0 22 -5 2 -11 15 -12 31 -1 15 -6
27 -11 27 -4 0 -7 6 -5 13 3 11 -15 79 -32 122 -17 43 -23 61 -26 85 -2 14 -8
26 -14 28 -5 2 -8 8 -4 13 3 5 1 9 -5 9 -6 0 -8 7 -5 15 4 8 1 15 -6 15 -6 0
-8 5 -5 10 3 6 1 10 -5 10 -6 0 -8 5 -5 10 3 6 0 10 -7 10 -9 0 -9 3 2 10 10
6 11 10 3 10 -7 0 -13 9 -13 20 0 11 -4 20 -10 20 -5 0 -10 7 -10 16 0 9 -9
27 -20 41 -23 29 -26 47 -7 38 6 -4 4 0 -5 8 -10 8 -15 17 -11 20 3 4 1 7 -6
7 -8 0 -11 6 -7 16 3 8 2 12 -4 9 -5 -3 -13 7 -16 22 -4 15 -13 34 -21 41 -7
7 -13 20 -13 28 0 8 -5 14 -11 14 -5 0 -8 4 -5 9 3 5 -1 14 -9 21 -8 7 -15 21
-15 31 0 11 -5 19 -10 19 -6 0 -15 12 -21 28 -9 23 -54 97 -69 112 -10 10 -31
45 -36 63 -4 9 -13 17 -21 17 -8 0 -12 4 -9 8 3 5 -6 20 -20 35 -13 14 -24 29
-24 33 0 4 -6 14 -14 23 -8 9 -25 27 -38 41 -13 14 -25 30 -28 35 -6 13 -30
42 -57 71 -13 13 -23 28 -23 34 0 6 -4 8 -10 5 -5 -3 -10 -2 -10 3 0 13 -198
212 -211 212 -6 0 -7 5 -4 10 3 6 3 10 -2 10 -4 0 -24 14 -43 30 -19 16 -39
30 -43 30 -5 0 -5 5 -2 10 3 6 2 10 -3 10 -16 0 -82 57 -74 64 3 4 -1 4 -10 1
-11 -4 -20 1 -28 14 -6 12 -17 21 -25 21 -8 0 -15 4 -15 8 0 4 -18 19 -40 32
-22 14 -40 28 -40 33 0 4 -7 7 -15 7 -8 0 -15 5 -15 10 0 6 -7 10 -15 10 -8 0
-15 5 -15 10 0 6 -7 10 -15 10 -8 0 -15 5 -15 10 0 6 -6 10 -13 10 -7 0 -23 9
-35 20 -12 11 -28 20 -35 20 -8 0 -20 7 -27 15 -7 8 -16 12 -21 9 -5 -3 -9 -1
-9 4 0 5 -12 15 -27 22 -16 8 -40 22 -55 32 -14 10 -33 18 -42 18 -9 0 -16 4
-16 8 0 8 -74 39 -76 31 0 -2 -8 4 -18 14 -10 9 -22 15 -27 12 -5 -4 -9 -2 -9
4 0 10 -38 27 -52 23 -5 -1 -8 2 -8 6 0 5 -6 9 -12 9 -12 0 -34 8 -133 52 -22
10 -48 17 -57 15 -10 -1 -18 2 -18 7 0 6 -4 7 -10 4 -5 -3 -10 -1 -10 4 0 6
-11 11 -23 11 -13 0 -27 3 -31 7 -6 7 -29 13 -53 15 -7 1 -13 4 -13 8 0 3 -15
7 -32 8 -18 2 -34 7 -36 12 -2 5 -10 6 -19 3 -9 -4 -14 -2 -11 3 4 5 -9 9 -28
8 -19 -1 -34 2 -34 8 0 5 -8 8 -17 7 -10 -1 -20 0 -23 1 -3 1 -14 3 -24 5 -11
2 -31 7 -45 11 -14 4 -36 6 -48 5 -14 -1 -23 3 -23 11 0 10 -3 9 -10 -2 -5 -8
-10 -10 -10 -4 0 11 -6 12 -55 15 -14 1 -28 5 -30 10 -3 4 -19 4 -35 -1 -17
-5 -28 -5 -26 -1 5 7 -26 11 -111 14 -13 1 -23 5 -23 10 0 5 -7 4 -15 -3 -8
-7 -15 -8 -15 -3 0 14 -453 13 -462 -1 -5 -8 -8 -7 -8 2 0 9 -5 10 -18 3 -11
-6 -24 -6 -34 0 -10 6 -19 6 -23 0z m368 -1599 c10 5 17 5 17 1 0 -4 19 -8 43
-9 72 -1 147 -9 147 -14 0 -4 10 -7 23 -7 12 -1 36 -4 52 -8 17 -3 38 -7 48
-8 9 -1 17 -5 17 -10 0 -4 5 -5 10 -2 6 4 17 2 24 -4 7 -6 25 -12 40 -13 14
-1 26 -6 26 -11 0 -4 5 -5 10 -2 6 3 10 1 10 -6 0 -7 3 -9 7 -6 3 4 13 1 21
-6 13 -10 14 -9 7 3 -6 11 -3 10 12 -3 11 -9 23 -14 26 -10 4 3 7 1 7 -5 0 -7
3 -11 8 -11 14 3 72 -23 72 -32 0 -5 8 -9 18 -9 9 0 28 -9 42 -20 14 -11 31
-20 38 -20 6 0 12 -4 12 -10 0 -5 7 -10 15 -10 8 0 15 -5 15 -11 0 -5 5 -7 10
-4 6 3 10 3 10 -2 0 -4 17 -19 38 -33 20 -14 43 -31 50 -37 7 -7 18 -13 23
-13 6 0 7 -4 4 -10 -3 -5 1 -10 9 -10 9 0 21 -9 28 -20 7 -11 19 -20 26 -20 7
0 11 -4 7 -9 -3 -5 3 -12 13 -15 10 -4 25 -18 32 -31 7 -14 19 -25 27 -25 7 0
13 -4 13 -10 0 -5 16 -25 35 -44 19 -20 35 -40 35 -45 0 -6 12 -23 26 -38 46
-51 51 -58 58 -80 4 -13 12 -23 17 -23 6 0 7 -4 4 -10 -3 -5 -2 -10 4 -10 6 0
13 -11 17 -25 3 -14 10 -25 16 -25 5 0 6 -4 3 -10 -3 -5 -1 -10 5 -10 7 0 9
-7 6 -16 -3 -8 -2 -13 3 -9 9 5 37 -62 33 -77 -1 -5 4 -8 12 -8 9 0 13 -7 11
-19 -2 -11 3 -22 11 -25 7 -3 11 -12 8 -20 -3 -8 0 -17 5 -21 6 -3 9 -10 6
-15 -3 -5 -1 -11 5 -15 5 -3 10 -17 10 -30 0 -13 5 -27 10 -30 6 -3 10 -16 10
-29 0 -12 6 -31 14 -41 8 -11 12 -25 9 -32 -3 -7 1 -21 8 -30 12 -14 12 -16 0
-8 -10 6 -12 4 -6 -6 5 -7 10 -20 11 -29 1 -8 5 -31 9 -50 10 -59 16 -113 17
-147 0 -18 5 -33 11 -33 7 0 7 -4 -1 -12 -8 -8 -9 -15 -1 -25 9 -10 8 -13 -2
-13 -10 0 -10 -3 -1 -12 7 -7 8 -17 1 -30 -7 -12 -6 -18 1 -18 7 0 8 -6 1 -19
-6 -10 -7 -21 -4 -25 11 -11 12 -36 1 -36 -6 0 -5 -6 2 -15 7 -8 9 -15 4 -15
-5 0 -10 -24 -12 -53 -2 -51 -9 -112 -12 -112 -1 0 -4 -16 -7 -35 -2 -19 -9
-41 -15 -47 -7 -9 -7 -13 2 -13 9 0 9 -4 2 -12 -6 -7 -13 -30 -17 -50 -4 -21
-11 -38 -16 -38 -4 0 -6 -9 -4 -20 2 -11 -1 -20 -6 -20 -6 0 -8 -4 -4 -9 3 -5
1 -12 -4 -16 -6 -3 -8 -12 -5 -20 4 -8 0 -17 -8 -20 -8 -3 -15 -15 -15 -28 -1
-12 -7 -23 -13 -25 -5 -2 -8 -7 -5 -12 3 -5 -2 -16 -11 -24 -8 -9 -13 -16 -9
-16 5 0 -5 -19 -59 -115 -35 -61 -78 -121 -118 -166 -10 -10 -18 -21 -18 -24
0 -3 -13 -19 -30 -37 -16 -17 -30 -36 -30 -41 0 -6 -3 -7 -7 -4 -3 4 -17 -8
-30 -25 -12 -18 -23 -29 -23 -25 0 4 -6 2 -14 -5 -8 -7 -12 -16 -9 -20 2 -5 1
-8 -4 -8 -9 0 -52 -33 -94 -72 -16 -15 -29 -24 -29 -20 0 4 -4 2 -8 -3 -11
-17 -72 -57 -72 -48 0 4 -7 -3 -16 -15 -9 -13 -22 -21 -30 -18 -8 3 -14 1 -14
-5 0 -5 -8 -12 -17 -16 -10 -3 -29 -15 -42 -27 -13 -12 -20 -14 -16 -7 5 8 -6
5 -23 -8 -18 -12 -36 -20 -41 -17 -5 3 -12 -1 -15 -10 -3 -8 -10 -13 -15 -10
-5 4 -15 0 -23 -7 -7 -8 -19 -12 -26 -9 -6 2 -12 -2 -12 -9 0 -7 -3 -10 -6 -7
-3 4 -35 -4 -70 -17 -35 -13 -64 -21 -64 -18 0 3 -6 1 -12 -4 -7 -6 -21 -9
-30 -8 -10 2 -18 -1 -18 -5 0 -5 -9 -7 -20 -5 -11 2 -22 0 -25 -5 -3 -5 -14
-7 -25 -5 -11 2 -20 1 -20 -3 0 -7 -37 -12 -132 -15 -32 -1 -58 -4 -58 -7 0
-3 -24 -4 -52 -3 -110 5 -223 11 -223 13 0 3 -98 21 -127 23 -10 1 -18 4 -18
8 0 4 -8 6 -17 4 -10 -1 -22 1 -28 5 -5 3 -30 12 -55 19 -25 6 -56 17 -70 23
-64 28 -75 34 -82 43 -4 5 -8 6 -8 1 0 -5 -7 -3 -15 4 -8 7 -15 9 -15 6 0 -4
-12 1 -28 11 -15 10 -44 26 -64 36 -21 9 -38 21 -38 27 0 5 -7 6 -17 3 -10 -4
-14 -2 -10 4 3 5 -9 16 -28 23 -19 7 -32 17 -29 22 3 4 -1 8 -8 8 -8 0 -28 13
-46 29 -17 17 -32 28 -32 25 0 -3 -11 6 -24 20 -13 15 -28 26 -35 26 -6 0 -11
7 -11 17 0 9 -3 14 -6 10 -9 -9 -174 166 -174 184 0 5 -4 9 -8 9 -4 0 -19 18
-32 40 -14 22 -29 40 -33 40 -5 0 -5 5 -2 10 3 6 1 10 -5 10 -6 0 -8 5 -5 10
3 6 -1 10 -9 10 -9 0 -16 3 -15 8 2 15 -14 52 -22 52 -5 0 -9 7 -9 15 0 8 -5
15 -10 15 -6 0 -9 3 -8 8 1 4 -8 27 -20 51 -12 25 -22 51 -22 58 0 7 -4 13
-10 13 -5 0 -10 7 -10 15 0 8 -4 23 -9 33 -11 19 -21 49 -20 58 0 4 -5 11 -13
15 -11 7 -10 9 1 9 12 0 11 3 -1 18 -9 9 -14 25 -13 35 2 9 -1 17 -6 17 -5 0
-8 3 -7 8 5 19 -15 92 -25 92 -8 0 -7 3 2 9 7 5 9 11 4 14 -8 5 -15 50 -17
110 0 15 -3 27 -6 27 -9 0 -6 293 3 308 5 7 3 12 -5 12 -9 0 -9 3 2 10 11 7
11 10 2 10 -8 0 -10 5 -5 13 4 6 8 20 9 30 1 9 2 18 4 20 1 1 3 13 4 27 2 14
7 43 11 65 4 22 8 46 8 53 0 6 3 12 7 12 4 0 7 6 7 13 2 33 14 72 24 76 8 2 7
6 -2 12 -11 7 -11 9 -1 9 7 0 10 5 7 10 -3 6 -2 10 4 10 6 0 8 7 5 15 -4 8 -1
15 7 15 7 0 9 3 6 6 -3 4 -1 16 5 28 7 11 11 24 10 29 -1 4 9 25 23 47 14 22
23 40 20 40 -3 0 2 11 11 25 9 14 13 25 10 25 -4 0 2 10 14 22 11 12 20 27 20
33 0 6 9 21 20 33 12 12 17 22 13 22 -4 0 -3 4 2 8 13 9 46 60 44 68 0 3 14
19 32 35 18 16 30 29 26 29 -7 0 29 41 115 128 34 34 66 62 70 62 4 0 8 7 8
15 0 8 4 14 9 12 5 -1 23 10 40 26 17 15 36 27 41 27 6 0 13 7 16 15 4 8 12
15 20 15 8 0 14 4 14 9 0 5 13 14 29 21 16 6 32 18 35 27 3 8 10 12 15 8 5 -3
13 0 16 6 4 5 14 8 23 4 9 -3 13 -3 10 1 -9 8 15 33 26 27 4 -3 12 1 17 8 4 8
12 14 16 15 28 3 63 18 63 27 0 6 3 7 7 4 3 -4 11 -3 17 2 14 11 163 63 191
67 11 1 20 3 20 4 0 1 7 3 15 5 8 2 26 7 40 10 14 3 41 8 60 10 19 2 35 4 35
5 0 5 49 11 113 14 40 2 75 6 78 9 3 3 18 2 33 -3 15 -4 35 -3 44 2z"/>
<path d="M7976 4343 c-4 -4 -28 -8 -54 -10 -46 -2 -117 -10 -117 -13 0 -1 -11
-3 -25 -5 -22 -2 -39 -6 -95 -18 -5 -2 -14 -5 -20 -8 -5 -3 -17 -5 -25 -4 -8
0 -17 -3 -20 -7 -3 -4 -15 -9 -25 -11 -11 -2 -29 -7 -40 -11 -11 -5 -36 -14
-56 -21 -20 -8 -40 -11 -44 -7 -5 4 -5 2 -2 -5 6 -10 -46 -38 -65 -34 -5 0 -8
-4 -8 -10 0 -5 -4 -7 -10 -4 -5 3 -10 1 -10 -4 0 -6 -7 -11 -15 -11 -8 0 -15
-5 -15 -11 0 -5 -4 -7 -10 -4 -5 3 -10 1 -10 -5 0 -6 -4 -8 -10 -5 -5 3 -10 1
-10 -4 0 -6 -6 -11 -13 -11 -8 0 -22 -9 -32 -20 -10 -11 -23 -20 -29 -20 -7 0
-19 -8 -28 -17 -17 -19 -39 -38 -101 -87 -20 -16 -34 -33 -31 -38 3 -5 2 -7
-3 -6 -9 3 -111 -96 -114 -110 -1 -7 -42 -60 -67 -88 -7 -8 -11 -14 -7 -14 4
0 0 -7 -7 -15 -30 -34 -36 -43 -31 -49 3 -3 -2 -8 -11 -12 -9 -3 -14 -10 -11
-14 3 -5 -1 -15 -9 -23 -8 -8 -12 -17 -9 -21 4 -3 1 -6 -5 -6 -7 0 -12 -3 -11
-7 2 -16 -14 -53 -22 -53 -5 0 -8 -3 -7 -7 3 -9 -31 -102 -42 -118 -4 -5 -6
-18 -5 -28 2 -9 -1 -15 -6 -11 -5 3 -9 -9 -9 -25 0 -18 -5 -31 -12 -31 -9 0
-8 -3 2 -10 13 -8 13 -10 0 -15 -14 -5 -21 -39 -24 -117 0 -16 -4 -28 -8 -28
-3 0 -5 -13 -4 -30 1 -16 0 -30 -3 -30 -9 0 -7 -253 2 -267 5 -7 4 -13 -2 -13
-6 0 -6 -11 -1 -31 5 -18 7 -35 5 -40 -3 -4 -2 -10 3 -13 4 -2 9 -19 10 -36 1
-18 7 -41 13 -51 7 -14 6 -19 -3 -19 -10 0 -10 -2 -1 -8 7 -5 15 -23 17 -41 2
-18 8 -36 13 -40 5 -3 9 -13 9 -21 2 -37 130 -310 146 -310 4 0 8 -7 8 -15 0
-8 5 -15 12 -15 6 0 9 -3 5 -6 -6 -6 1 -16 33 -52 9 -9 29 -35 45 -57 16 -22
59 -69 96 -105 63 -61 90 -85 148 -127 13 -10 32 -26 42 -35 11 -10 21 -17 24
-15 2 1 13 -6 25 -15 11 -10 20 -15 20 -12 0 3 12 -3 28 -13 32 -23 151 -83
172 -89 34 -8 115 -39 118 -45 2 -4 12 -5 22 -2 11 3 20 1 20 -4 0 -6 11 -9
25 -8 14 2 25 -1 25 -7 0 -6 9 -8 20 -5 11 3 20 1 20 -3 0 -5 14 -7 30 -5 17
2 30 1 30 -3 0 -11 71 -15 225 -14 120 1 210 6 210 12 0 1 11 4 25 5 51 4 104
16 115 25 7 5 15 7 18 3 4 -3 13 0 22 7 8 7 15 10 15 6 0 -3 16 0 35 8 19 8
35 12 35 9 0 -3 10 2 22 13 12 10 18 14 15 8 -4 -7 22 4 58 22 36 19 65 31 65
27 0 -3 8 0 18 8 9 8 33 23 52 33 19 10 45 28 58 39 12 11 22 16 22 11 0 -5 5
-1 11 9 5 9 14 17 19 17 9 0 43 26 76 58 8 7 14 10 14 5 1 -4 7 3 15 17 8 14
14 22 15 18 0 -12 90 79 90 92 0 6 5 8 10 5 6 -3 10 -3 10 2 0 7 10 20 71 91
10 12 19 27 19 32 0 6 5 10 10 10 6 0 10 7 10 15 0 7 8 19 18 24 9 6 13 11 8
11 -5 0 -2 8 7 18 8 9 17 24 19 32 5 21 22 39 32 32 5 -3 6 0 2 7 -4 6 -2 18
4 26 7 8 9 15 4 15 -4 0 -1 6 8 13 14 11 28 47 27 70 0 5 8 15 18 24 10 8 11
11 3 7 -12 -6 -13 -5 -4 7 16 21 45 110 38 120 -3 5 0 9 5 9 6 0 11 9 11 21 0
11 5 30 12 42 6 12 11 36 11 52 0 17 5 33 11 37 7 5 7 8 -2 8 -9 0 -10 5 -3
19 6 10 8 21 5 23 -2 3 0 17 6 32 5 15 6 25 2 22 -4 -2 -8 4 -8 14 0 10 4 16
8 14 11 -7 7 197 -5 220 -6 13 -6 16 2 12 8 -5 8 0 1 18 -5 14 -7 34 -5 45 2
12 -1 21 -6 21 -6 0 -9 6 -6 13 2 6 0 20 -5 30 -6 12 -5 17 4 17 10 0 10 2 0
9 -8 4 -13 11 -13 15 1 3 1 7 0 9 -3 10 -9 46 -11 65 -1 12 -6 22 -11 22 -5 0
-7 11 -5 25 3 13 1 22 -3 19 -5 -3 -11 8 -15 23 -4 15 -11 33 -16 40 -5 7 -7
16 -4 21 3 5 -4 21 -15 36 -11 14 -18 26 -15 26 3 0 -3 16 -14 35 -11 20 -20
42 -20 51 0 8 -4 12 -10 9 -9 -6 -14 8 -11 28 0 4 -3 7 -8 7 -5 0 -12 8 -16
19 -3 10 -17 31 -30 47 -14 16 -25 34 -25 40 0 7 -7 14 -15 18 -8 3 -15 10
-15 16 0 6 -11 22 -25 36 -14 14 -25 29 -25 34 0 6 -7 10 -17 10 -9 0 -14 3
-11 6 8 7 -63 80 -74 76 -5 -1 -7 2 -3 8 3 5 -2 13 -12 17 -23 9 -43 28 -43
43 0 6 -4 9 -8 6 -5 -3 -20 6 -35 20 -14 13 -30 24 -34 24 -5 0 -16 9 -26 20
-10 12 -22 18 -27 15 -6 -3 -10 -2 -10 3 0 10 -98 69 -122 74 -7 2 -17 8 -23
14 -5 6 -29 17 -52 24 -24 7 -43 17 -43 22 0 5 -4 7 -8 4 -5 -3 -21 1 -36 9
-15 8 -39 16 -54 17 -15 2 -29 6 -32 10 -3 4 -23 10 -45 14 -21 3 -48 9 -59
13 -12 4 -31 6 -43 5 -13 0 -23 2 -23 7 0 4 -16 7 -36 5 -19 -1 -37 1 -39 4
-3 4 -18 6 -35 4 -19 -2 -30 1 -30 9 0 7 -3 8 -8 2 -10 -14 -52 -17 -52 -4 0
8 -5 7 -16 -2 -13 -10 -17 -10 -25 2 -7 12 -9 12 -9 -1 0 -11 -2 -12 -8 -2 -5
7 -12 9 -16 5z"/>
</g>
</svg>
