<svg id="coaching" xmlns="http://www.w3.org/2000/svg" width="35.414" height="37.646" viewBox="0 0 35.414 37.646">
  <path id="Path_1539" data-name="Path 1539" d="M50.629,4.774V4.11a1.3,1.3,0,0,0-1.3-1.3H36.566V2.188A2.19,2.19,0,0,0,34.378,0H31.466a2.19,2.19,0,0,0-2.188,2.188v.619H16.517a1.3,1.3,0,0,0-1.3,1.3v.664a1.3,1.3,0,0,0,.752,1.179V25.818A1.3,1.3,0,0,0,15.215,27v.664a1.3,1.3,0,0,0,1.3,1.3h4.6a.55.55,0,0,0,0-1.1h-4.6a.2.2,0,0,1-.2-.2V27a.2.2,0,0,1,.2-.2H49.326a.2.2,0,0,1,.2.2v.664a.2.2,0,0,1-.2.2H23.462a.55.55,0,0,0,0,1.1h3.33v1.053a1.434,1.434,0,0,0,.708,1.235L25.3,36.9a.55.55,0,1,0,1.026.4L28.6,31.452h8.639L39.513,37.3a.55.55,0,0,0,1.026-.4L38.33,31.216a1.434,1.434,0,0,0,.648-1.2V28.964H49.326a1.3,1.3,0,0,0,1.3-1.3V27a1.3,1.3,0,0,0-.752-1.179V5.953a1.3,1.3,0,0,0,.752-1.179ZM37.878,30.017a.334.334,0,0,1-.334.334H28.226a.334.334,0,0,1-.334-.334V28.964h9.986Zm-7.5-27.83A1.088,1.088,0,0,1,31.466,1.1h2.913a1.088,1.088,0,0,1,1.087,1.087v.619H30.378ZM16.315,4.11a.2.2,0,0,1,.2-.2H49.326a.2.2,0,0,1,.2.2v.664a.2.2,0,0,1-.2.2h-3.8a.55.55,0,1,0,0,1.1h3.253V25.695H17.068V6.076H43.176a.55.55,0,1,0,0-1.1H16.517a.2.2,0,0,1-.2-.2Z" transform="translate(-15.215 0)" fill="#707070"/>
  <path id="Path_1540" data-name="Path 1540" d="M188.725,440.209h-1.477a.782.782,0,0,0-.733.5l-1.595,4.1a.55.55,0,1,0,1.026.4l1.517-3.9h.948v3.7a.55.55,0,1,0,1.1,0V441A.787.787,0,0,0,188.725,440.209Z" transform="translate(-172.436 -407.916)" fill="#707070"/>
  <path id="Path_1541" data-name="Path 1541" d="M268.192,440.71a.782.782,0,0,0-.733-.5h-1.477a.787.787,0,0,0-.786.786v4.016a.55.55,0,0,0,1.1,0v-3.7h.948l1.517,3.9a.55.55,0,1,0,1.026-.4Z" transform="translate(-246.857 -407.916)" fill="#707070"/>
  <path id="Path_1542" data-name="Path 1542" d="M141.577,120.281h-1.131v-.845a3.288,3.288,0,0,0-3.284-3.284h-6.819a3.288,3.288,0,0,0-3.284,3.284v6.838a1,1,0,0,0,1.594.812l.924-.671h1.9v.845a3.288,3.288,0,0,0,3.284,3.284h7.586l.924.671a1,1,0,0,0,1.594-.812v-6.838A3.288,3.288,0,0,0,141.577,120.281Zm2.184,9.933-.915-.664a.55.55,0,0,0-.323-.1h-7.764a2.186,2.186,0,0,1-2.184-2.184v-.845h1.632a.55.55,0,1,0,0-1.1H129.4a.55.55,0,0,0-.323.1l-.915.664v-6.648a2.186,2.186,0,0,1,2.184-2.184h6.819a2.186,2.186,0,0,1,2.184,2.184v3.7a2.186,2.186,0,0,1-2.184,2.184h-.608a.55.55,0,1,0,0,1.1h.608a3.288,3.288,0,0,0,3.284-3.284v-1.749h1.131a2.186,2.186,0,0,1,2.184,2.184v6.648Z" transform="translate(-118.854 -107.63)" fill="#707070"/>
</svg>
