<svg xmlns="http://www.w3.org/2000/svg" width="90.274" height="90.145" viewBox="0 0 90.274 90.145">
  <g id="Group_1205" data-name="Group 1205" transform="translate(0 -0.001)">
    <g id="Group_324" data-name="Group 324" transform="translate(83.141 37.27) rotate(167)">
      <path id="Path_1511" data-name="Path 1511" d="M38.248,38.249A38.292,38.292,0,0,1,0,0H3.58A34.708,34.708,0,0,0,38.248,34.669,34.708,34.708,0,0,0,72.917,0H76.5A38.293,38.293,0,0,1,38.248,38.249Z" fill="#fcc013"/>
    </g>
    <g id="Group_325" data-name="Group 325" transform="translate(90.274 73.475) rotate(167)">
      <path id="Path_1512" data-name="Path 1512" d="M74.11,37.054H72.917a35.862,35.862,0,0,0-71.723,0H0a37.055,37.055,0,0,1,74.11,0Z" transform="translate(0)" fill="#b9b9b9"/>
    </g>
    <g id="meeting" transform="translate(27.204 25.947)">
      <g id="Group_348" data-name="Group 348" transform="translate(0 5.554)">
        <g id="Group_347" data-name="Group 347" transform="translate(0)">
          <path id="Path_1543" data-name="Path 1543" d="M38.438,79.456a4.318,4.318,0,1,0-5.312.484,3.085,3.085,0,0,0-1.353,2.551v4.32H29.3V83.726A4.324,4.324,0,0,0,25.5,79.439a4.32,4.32,0,1,0-5.962,0,4.324,4.324,0,0,0-3.808,4.287v3.086H13.257v-4.32A3.085,3.085,0,0,0,11.9,79.94a4.322,4.322,0,1,0-5.312-.484A3.083,3.083,0,0,0,4,82.492v9.257a3.092,3.092,0,0,0,2.469,3.023v9.32H7.7V94.835h5.554v8.64a.617.617,0,0,0,.617.617h3.7a.617.617,0,0,0,.617-.617V93.6h3.7v9.257H19.429v1.234H25.6v-1.234H23.132V93.6h3.7v9.874a.617.617,0,0,0,.617.617h3.7a.617.617,0,0,0,.617-.617v-8.64h5.554v9.257H38.56v-9.32a3.091,3.091,0,0,0,2.469-3.023V82.492A3.083,3.083,0,0,0,38.438,79.456ZM32.389,76.32a3.086,3.086,0,1,1,3.086,3.086A3.089,3.089,0,0,1,32.389,76.32Zm-12.96,0a3.086,3.086,0,1,1,3.086,3.086A3.089,3.089,0,0,1,19.429,76.32Zm4.047,4.32L22.515,83.2l-.961-2.562ZM16.96,83.726a3.089,3.089,0,0,1,3.086-3.086h.189l1.7,4.537a.617.617,0,0,0,1.156,0l1.7-4.537h.189a3.089,3.089,0,0,1,3.086,3.086v3.086H25.6a.617.617,0,0,0-.617.617V89.9H20.046V87.429a.617.617,0,0,0-.617-.617H16.96ZM6.469,76.32a3.086,3.086,0,1,1,3.086,3.086A3.089,3.089,0,0,1,6.469,76.32ZM16.96,102.858H14.492v-8.64a.617.617,0,0,0-.617-.617H7.086a1.854,1.854,0,0,1-1.851-1.851V82.492A1.854,1.854,0,0,1,7.086,80.64h3.086a1.854,1.854,0,0,1,1.851,1.851v4.937a.617.617,0,0,0,.617.617h6.172V89.9h-8.64V84.343H8.937v6.172a.617.617,0,0,0,.617.617h5.554a1.854,1.854,0,0,1,1.851,1.851ZM26.9,92.366H18.125a3.082,3.082,0,0,0-.549-1.234h9.877A3.082,3.082,0,0,0,26.9,92.366Zm12.891-.617A1.854,1.854,0,0,1,37.943,93.6H31.155a.617.617,0,0,0-.617.617v8.64H28.069V92.983a1.854,1.854,0,0,1,1.851-1.851h5.554a.617.617,0,0,0,.617-.617V84.343H34.858V89.9h-8.64V88.046h6.172a.617.617,0,0,0,.617-.617V82.492a1.854,1.854,0,0,1,1.851-1.851h3.086a1.854,1.854,0,0,1,1.851,1.851Z" transform="translate(-4 -72)" fill="#707070"/>
        </g>
      </g>
      <g id="Group_350" data-name="Group 350" transform="translate(17.683 20.131)">
        <g id="Group_349" data-name="Group 349" transform="translate(0 0)">
          <rect id="Rectangle_1309" data-name="Rectangle 1309" width="1.57" height="1.57" transform="translate(0 0)" fill="#707070"/>
        </g>
      </g>
      <g id="Group_352" data-name="Group 352" transform="translate(6.172)">
        <g id="Group_351" data-name="Group 351">
          <path id="Path_1544" data-name="Path 1544" d="M93.257,0h-8.64A.617.617,0,0,0,84,.617V3.7a.617.617,0,0,0,.617.617h2.469V5.554a.617.617,0,0,0,.987.494l2.3-1.728h2.88a.617.617,0,0,0,.617-.617V.617A.617.617,0,0,0,93.257,0ZM92.64,3.086H90.172a.617.617,0,0,0-.37.123L88.32,4.32V3.7a.617.617,0,0,0-.617-.617H85.234V1.234H92.64Z" transform="translate(-84)" fill="#707070"/>
        </g>
      </g>
      <g id="Group_354" data-name="Group 354" transform="translate(21.869 1.816)">
        <g id="Group_353" data-name="Group 353" transform="translate(0 0)">
          <rect id="Rectangle_1310" data-name="Rectangle 1310" width="0.523" height="1.047" transform="translate(0 0)" fill="#707070"/>
        </g>
      </g>
      <g id="Group_356" data-name="Group 356" transform="translate(23.962 1.816)">
        <g id="Group_355" data-name="Group 355" transform="translate(0 0)">
          <rect id="Rectangle_1311" data-name="Rectangle 1311" width="1.047" height="1.047" transform="translate(0 0)" fill="#707070"/>
        </g>
      </g>
      <g id="Group_358" data-name="Group 358" transform="translate(26.578 1.816)">
        <g id="Group_357" data-name="Group 357" transform="translate(0 0)">
          <rect id="Rectangle_1312" data-name="Rectangle 1312" width="1.57" height="1.047" transform="translate(0 0)" fill="#707070"/>
        </g>
      </g>
    </g>
  </g>
</svg>
