<svg xmlns="http://www.w3.org/2000/svg" width="106.093" height="106.093" viewBox="0 0 106.093 106.093">
  <g id="Group_1206" data-name="Group 1206" transform="translate(-0.844 -0.844)">
    <g id="Group_324" data-name="Group 324" transform="translate(25.867 79.891) rotate(-45)">
      <path id="Path_1511" data-name="Path 1511" d="M38.2,38.249A38.268,38.268,0,0,1,0,0H3.576A34.686,34.686,0,0,0,38.2,34.669,34.686,34.686,0,0,0,72.825,0H76.4A38.269,38.269,0,0,1,38.2,38.249Z" fill="#fcc013"/>
    </g>
    <g id="Group_325" data-name="Group 325" transform="translate(0.844 53.18) rotate(-45)">
      <path id="Path_1512" data-name="Path 1512" d="M74.014,37.054H72.822a35.815,35.815,0,1,0-71.63,0H0a37.007,37.007,0,1,1,74.014,0Z" transform="translate(0)" fill="#b9b9b9"/>
    </g>
    <g id="ramadan" transform="translate(34.637 34.645)">
      <path id="Path_1545" data-name="Path 1545" d="M37.238,25.464a.989.989,0,0,0-1.3.12,16.75,16.75,0,0,1-4.32,3.2V27.114a.551.551,0,0,0-1.1,0V33.29a18.706,18.706,0,0,1-2.476,1.466V23.434h2.476v1.107a.551.551,0,1,0,1.1,0V20.034c.936-1.271.26-2.662-1.028-3.319a2.092,2.092,0,0,1-.762-.644V14.987a.551.551,0,1,0-1.1,0v1.084a2.1,2.1,0,0,1-.762.644c-1.295.661-1.961,2.052-1.028,3.319v1H24.551V18.193a3.332,3.332,0,0,0,.412-4.058,6.2,6.2,0,0,0-2.9-2.368,5.217,5.217,0,0,1-1.98-1.345.971.971,0,0,0-.413-.292V9.082a1.965,1.965,0,0,0,1.371-.918.551.551,0,0,0-.941-.576.87.87,0,1,1-1.435-.979.551.551,0,0,0-.878-.667,1.972,1.972,0,0,0,.376,2.763,1.985,1.985,0,0,0,.4.237v1.187a.971.971,0,0,0-.413.292,5.217,5.217,0,0,1-1.98,1.345,6.2,6.2,0,0,0-2.9,2.368,3.332,3.332,0,0,0,.412,4.058V21.03H11.31v-1a2,2,0,0,0,.24-2.089c-.631-1.194-1.491-1.136-1.919-1.748a.728.728,0,0,0-.111-.125V14.987a.551.551,0,0,0-1.1,0v1.084a2.093,2.093,0,0,1-.762.644c-.09.046-.175.1-.259.149a17,17,0,0,1-.265-2.99c0-.381.014-.779.042-1.181a.551.551,0,1,0-1.1-.076c-.03.427-.045.85-.045,1.257a18.075,18.075,0,0,0,.434,3.938,1.951,1.951,0,0,0,.166,2.222V31.226A18.681,18.681,0,0,1,10.99,1.512,17.8,17.8,0,0,0,6.46,9.962a.551.551,0,1,0,1.076.24,16.717,16.717,0,0,1,4.67-8.35A1,1,0,0,0,11.068.232,19.785,19.785,0,1,0,37.557,26.721.982.982,0,0,0,37.238,25.464Zm-27.031,8.55A18.762,18.762,0,0,1,7.731,32.24V23.434h2.476Zm0-11.683H7.731V20.389h2.476Zm.278-3.045H7.454a.887.887,0,0,1-.091-.826c.406-.768.965-.69,1.607-1.343.64.652,1.2.573,1.607,1.343A.885.885,0,0,1,10.485,19.287Zm3.21,16.355a18.636,18.636,0,0,1-2.385-1.016V22.133h2.385Zm7.245.987c-.351.021-.722.036-1.135.036a18.86,18.86,0,0,1-2.5-.167V30.226a3.115,3.115,0,0,1,1.762-2.818.124.124,0,0,1,.109,0h0a3.116,3.116,0,0,1,1.762,2.818v6.4Zm2.509-.32q-.7.138-1.406.222v-6.3a4.211,4.211,0,0,0-2.381-3.809,1.22,1.22,0,0,0-1.077,0A4.211,4.211,0,0,0,16.2,30.226v6.091q-.709-.139-1.406-.331v-12.2h8.651Zm0-13.628H14.8V18.515h8.651Zm.324-5.268h-9.3a2.229,2.229,0,0,1-.257-2.691,5.124,5.124,0,0,1,2.4-1.941,6.356,6.356,0,0,0,2.353-1.607h.311a6.355,6.355,0,0,0,2.353,1.607,5.124,5.124,0,0,1,2.4,1.941A2.229,2.229,0,0,1,23.773,17.412Zm3.163,17.842a18.593,18.593,0,0,1-2.385.8V22.133h2.385Zm3.579-12.923H28.038V20.389h2.476ZM27.67,18.46a1.8,1.8,0,0,1,.795-.763,3.111,3.111,0,0,0,.812-.579,3.109,3.109,0,0,0,.812.579,1.8,1.8,0,0,1,.795.763.885.885,0,0,1-.091.826H27.761a.885.885,0,0,1-.091-.826Zm3.948,13.993V30.02a17.829,17.829,0,0,0,4.659-3.22,18.834,18.834,0,0,1-4.659,5.654Z" transform="translate(0 -0.121)" fill="#707070"/>
      <path id="Path_1546" data-name="Path 1546" d="M219.988,266.305a.551.551,0,0,0,.551-.551v-1.023a.551.551,0,0,0-1.1,0v1.023A.551.551,0,0,0,219.988,266.305Z" transform="translate(-203.304 -244.767)" fill="#707070"/>
      <path id="Path_1547" data-name="Path 1547" d="M253.155,266.305a.551.551,0,0,0,.551-.551v-1.023a.551.551,0,1,0-1.1,0v1.023A.551.551,0,0,0,253.155,266.305Z" transform="translate(-234.033 -244.767)" fill="#707070"/>
      <path id="Path_1548" data-name="Path 1548" d="M286.323,266.305a.551.551,0,0,0,.551-.551v-1.023a.551.551,0,1,0-1.1,0v1.023A.551.551,0,0,0,286.323,266.305Z" transform="translate(-264.762 -244.767)" fill="#707070"/>
    </g>
  </g>
</svg>
