<svg xmlns="http://www.w3.org/2000/svg" width="25.112" height="25.111" viewBox="0 0 25.112 25.111">
  <path id="Icon_awesome-linkedin-in" data-name="Icon awesome-linkedin-in" d="M5.621,25.112H.415V8.346H5.621ZM3.015,6.059A3.029,3.029,0,1,1,6.03,3.016,3.041,3.041,0,0,1,3.015,6.059ZM25.106,25.112H19.911V16.95c0-1.945-.039-4.439-2.707-4.439-2.707,0-3.122,2.113-3.122,4.3v8.3h-5.2V8.346h4.993v2.287h.073a5.47,5.47,0,0,1,4.926-2.707c5.269,0,6.238,3.47,6.238,7.976v9.209Z" transform="translate(0 0)" fill="#262626"/>
</svg>
