<svg xmlns="http://www.w3.org/2000/svg" width="25.126" height="25.12" viewBox="0 0 25.126 25.12">
  <path id="Icon_awesome-instagram" data-name="Icon awesome-instagram" d="M12.56,8.357A6.44,6.44,0,1,0,19,14.8,6.43,6.43,0,0,0,12.56,8.357Zm0,10.628A4.187,4.187,0,1,1,16.747,14.8,4.195,4.195,0,0,1,12.56,18.985ZM20.766,8.094a1.5,1.5,0,1,1-1.5-1.5A1.5,1.5,0,0,1,20.766,8.094Zm4.266,1.525A7.434,7.434,0,0,0,23,4.355,7.483,7.483,0,0,0,17.74,2.326c-2.074-.118-8.29-.118-10.364,0A7.472,7.472,0,0,0,2.112,4.349,7.458,7.458,0,0,0,.083,9.613c-.118,2.074-.118,8.29,0,10.364A7.434,7.434,0,0,0,2.112,25.24a7.492,7.492,0,0,0,5.263,2.029c2.074.118,8.29.118,10.364,0A7.434,7.434,0,0,0,23,25.24a7.483,7.483,0,0,0,2.029-5.263c.118-2.074.118-8.285,0-10.359ZM22.353,22.2a4.239,4.239,0,0,1-2.388,2.388c-1.654.656-5.577.5-7.4.5s-5.757.146-7.4-.5A4.239,4.239,0,0,1,2.768,22.2c-.656-1.654-.5-5.577-.5-7.4s-.146-5.757.5-7.4A4.239,4.239,0,0,1,5.156,5.005c1.654-.656,5.577-.5,7.4-.5s5.757-.146,7.4.5a4.239,4.239,0,0,1,2.388,2.388c.656,1.654.5,5.577.5,7.4S23.009,20.554,22.353,22.2Z" transform="translate(0.005 -2.238)" fill="#262626"/>
</svg>
