<svg xmlns="http://www.w3.org/2000/svg" width="91.243" height="91.116" viewBox="0 0 91.243 91.116">
  <g id="Group_1201" data-name="Group 1201" transform="translate(0 0)">
    <g id="Group_324" data-name="Group 324" transform="translate(83.478 37.113) rotate(166)">
      <path id="Path_1511" data-name="Path 1511" d="M38.248,38.249A38.292,38.292,0,0,1,0,0H3.58A34.708,34.708,0,0,0,38.248,34.669,34.708,34.708,0,0,0,72.917,0H76.5A38.293,38.293,0,0,1,38.248,38.249Z" fill="#fcc013"/>
    </g>
    <g id="Group_325" data-name="Group 325" transform="translate(91.243 73.188) rotate(166)">
      <path id="Path_1512" data-name="Path 1512" d="M74.11,37.054H72.917a35.862,35.862,0,0,0-71.723,0H0a37.055,37.055,0,0,1,74.11,0Z" transform="translate(0)" fill="#b9b9b9"/>
    </g>
    <g id="pregnant" transform="translate(26.874 31.254)">
      <g id="Group_338" data-name="Group 338" transform="translate(5.349 0)">
        <g id="Group_337" data-name="Group 337" transform="translate(0 0)">
          <path id="Path_1526" data-name="Path 1526" d="M93.887,32.468a10.983,10.983,0,0,0-5.839,1.68c-.336.182-2.887,1.656-2.491,4.342a5.16,5.16,0,0,0,1.166,2.36,4.7,4.7,0,0,1,1.2,3.722l-.029-.017A2.2,2.2,0,0,0,85,45.388a2.757,2.757,0,0,0-1.949-.775,4.556,4.556,0,0,1,.007-.881,5.6,5.6,0,0,0-.024-1.344,4.133,4.133,0,0,0-1.917-2.924,5.649,5.649,0,0,0-4.548-.644,5.208,5.208,0,0,0-2.291,8.6,1.579,1.579,0,0,1,.452,1.147,9.687,9.687,0,0,0,5.3,9.06,9.934,9.934,0,0,0,4.583,1.138,9.5,9.5,0,0,0,2.773-.413,9.916,9.916,0,0,0,1.461-.575,5.977,5.977,0,0,0,3.339-5.31,2.192,2.192,0,0,0,1.071-.07,2.229,2.229,0,0,0,1.417-2.786l-.563-1.81a3.674,3.674,0,0,0-4.839-2.331A6.176,6.176,0,0,0,87.9,39.976a3.928,3.928,0,0,1-.893-1.7c-.261-1.768,1.662-2.8,1.742-2.839q.028-.015.056-.032a9.516,9.516,0,0,1,5.079-1.469,9.879,9.879,0,0,1,9.731,10c0,6.051-4.751,11.135-8.736,14.335a49.6,49.6,0,0,1-8.6,5.483,49.767,49.767,0,0,1-8.158-5.134.735.735,0,0,0-.9,1.158,49.462,49.462,0,0,0,8.755,5.459.735.735,0,0,0,.616,0,49.457,49.457,0,0,0,9.186-5.8,30.961,30.961,0,0,0,6.361-6.679,15.719,15.719,0,0,0,2.949-8.821A11.349,11.349,0,0,0,93.887,32.468Zm-11.8,14.7a3.012,3.012,0,0,0,.887-1.078,1.274,1.274,0,0,1,1.283.753l-.306.6L81.825,47.4C81.913,47.318,82,47.242,82.086,47.167Zm6.455.972.245-.48a2.2,2.2,0,0,1,3.928.58l.563,1.81a.755.755,0,0,1-.465.952.735.735,0,0,1-.9-.412l-.429-1.379a.734.734,0,0,0-1.4.437l.441,1.415a4.491,4.491,0,0,1-2.312,5.4,8.345,8.345,0,0,1-11.6-4.888A8.309,8.309,0,0,1,76.2,48.63,3.054,3.054,0,0,0,75.34,46.4a3.7,3.7,0,0,1-.893-1.551,3.745,3.745,0,0,1,2.539-4.623,4.146,4.146,0,0,1,3.335.467,2.675,2.675,0,0,1,1.26,1.888,4.163,4.163,0,0,1,.016,1.029,5.97,5.97,0,0,0,.04,1.514c.06.412-.021.5-.52.935-.137.121-.293.257-.453.416l-.006.005-.009.009a1.38,1.38,0,0,0,.931,2.372l2.521.05a1.184,1.184,0,0,0,1.076-.644l1.063-2.085a.734.734,0,1,1,1.309.667l-.037.073a3.686,3.686,0,0,0-.31.609l-.715,1.4A2.675,2.675,0,0,1,84.9,50.265a2.613,2.613,0,0,1-.832.119l-3.177-.064a.734.734,0,0,0-.03,1.469l3.176.064a4.09,4.09,0,0,0,1.3-.185,4.169,4.169,0,0,0,1.9-1.243l.518,1.662a.734.734,0,1,0,1.4-.437l-.654-2.1A2.207,2.207,0,0,1,88.541,48.139Z" transform="translate(-72.831 -32.468)" fill="#707070"/>
        </g>
      </g>
      <g id="Group_340" data-name="Group 340" transform="translate(7.349 24.232)">
        <g id="Group_339" data-name="Group 339">
          <path id="Path_1527" data-name="Path 1527" d="M101.3,362.593l-.021-.019a.735.735,0,0,0-.981,1.093l.021.019a.734.734,0,1,0,.981-1.093Z" transform="translate(-100.054 -362.386)" fill="#707070"/>
        </g>
      </g>
      <g id="Group_342" data-name="Group 342" transform="translate(0 0)">
        <g id="Group_341" data-name="Group 341" transform="translate(0 0)">
          <path id="Path_1528" data-name="Path 1528" d="M17.062,34.163A10.98,10.98,0,0,0,11.2,32.468,11.35,11.35,0,0,0,0,43.937C0,47.93,1.8,51.908,5.338,55.76a.735.735,0,0,0,1.081-.994C3.135,51.194,1.469,47.55,1.469,43.937a9.879,9.879,0,0,1,9.731-10,9.514,9.514,0,0,1,5.079,1.469.734.734,0,1,0,.783-1.243Z" transform="translate(0 -32.468)" fill="#707070"/>
        </g>
      </g>
      <g id="Group_344" data-name="Group 344" transform="translate(25.671 3.491)">
        <g id="Group_343" data-name="Group 343" transform="translate(0 0)">
          <path id="Path_1529" data-name="Path 1529" d="M350.248,80a.734.734,0,1,0,0,1.469h0a.734.734,0,0,0,0-1.469Z" transform="translate(-349.513 -80.002)" fill="#707070"/>
        </g>
      </g>
      <g id="Group_346" data-name="Group 346" transform="translate(28.148 3.949)">
        <g id="Group_345" data-name="Group 345" transform="translate(0 0)">
          <path id="Path_1530" data-name="Path 1530" d="M387.876,89.172a7.8,7.8,0,0,0-3.638-2.883.734.734,0,1,0-.527,1.371,6.535,6.535,0,0,1,4.113,6.1.734.734,0,1,0,1.469,0A8.055,8.055,0,0,0,387.876,89.172Z" transform="translate(-383.24 -86.24)" fill="#707070"/>
        </g>
      </g>
    </g>
  </g>
</svg>
