<svg xmlns="http://www.w3.org/2000/svg" width="90.802" height="91.077" viewBox="0 0 90.802 91.077">
  <g id="Group_1200" data-name="Group 1200" transform="translate(-0.289 -1.157)">
    <g id="Group_330" data-name="Group 330" transform="translate(0 74.131) rotate(-76)">
      <g id="Group_324" data-name="Group 324" transform="translate(0 36.582)">
        <path id="Path_1511" data-name="Path 1511" d="M38.2,38.249A38.268,38.268,0,0,1,0,0H3.576A34.686,34.686,0,0,0,38.2,34.669,34.686,34.686,0,0,0,72.825,0H76.4A38.269,38.269,0,0,1,38.2,38.249Z" fill="#fcc013"/>
      </g>
      <g id="Group_325" data-name="Group 325" transform="translate(1.193 0)">
        <path id="Path_1512" data-name="Path 1512" d="M74.014,37.054H72.822a35.815,35.815,0,1,0-71.63,0H0a37.007,37.007,0,1,1,74.014,0Z" transform="translate(0)" fill="#b9b9b9"/>
      </g>
    </g>
    <g id="quran" transform="translate(27.838 27.294)">
      <path id="Path_1514" data-name="Path 1514" d="M49.894,89.125a2.647,2.647,0,0,0-2.338-.395V87.4a1.885,1.885,0,0,0-.744-1.5c-1.249-.943-3.774-1.294-6.926-.964a11.838,11.838,0,0,0-7.005,2.9,11.838,11.838,0,0,0-7.005-2.9c-3.153-.33-5.677.021-6.926.964a1.885,1.885,0,0,0-.744,1.5V88.73c-1.389-.227-3.032.189-3.032,1.927v18.519a2.046,2.046,0,0,0,1.776,2.023l4.969.647L20.7,114.5a1.236,1.236,0,0,0,1.107,1.729H24.64a1.222,1.222,0,0,0,1.108-.71l1.377-3,4.789.623a7.5,7.5,0,0,0,1.932,0l8.851-1.152,1.364,2.966a.116.116,0,0,1-.106.165H41.119a.117.117,0,0,1-.106-.068l-.422-.918a.551.551,0,0,0-1,.461l.422.918a1.222,1.222,0,0,0,1.108.71h2.836a1.236,1.236,0,0,0,1.108-1.729l-1.221-2.655,4.97-.647a2.045,2.045,0,0,0,1.775-2.022V90.657A2.038,2.038,0,0,0,49.894,89.125ZM20.367,104.173a6.578,6.578,0,0,1,5.393-1.449,9.139,9.139,0,0,1,5.062,2.127,8.839,8.839,0,0,1,.817.789Zm13.754,1.467a8.839,8.839,0,0,1,.817-.789A9.139,9.139,0,0,1,40,102.724a10.049,10.049,0,0,1,1.047-.056,6.174,6.174,0,0,1,4.345,1.505ZM40,86.037c3.339-.35,5.365.157,6.147.747a.776.776,0,0,1,.306.617V103.68c-.839-.914-2.834-2.443-6.568-2.052a10.192,10.192,0,0,0-6.454,3.127v-15.9A10.551,10.551,0,0,1,40,86.037Zm-20.387.747a7.274,7.274,0,0,1,4.07-.862,19.985,19.985,0,0,1,2.077.115,10.551,10.551,0,0,1,6.569,2.815v15.9a10.192,10.192,0,0,0-6.454-3.127c-3.734-.391-5.728,1.138-6.568,2.052V87.4A.776.776,0,0,1,19.613,86.784Zm-3.019,3.169c.432-.379,1.1-.178,1.61-.112v14.131a1.176,1.176,0,0,0,1.022,1.163l13.1,1.706V108.5a.551.551,0,1,0,1.1,0v-1.655l13.1-1.706a1.176,1.176,0,0,0,1.022-1.163V89.842c.718-.093,1.929-.306,1.929.815V106.94a.94.94,0,0,1-.815.929L33.7,109.817a6.4,6.4,0,0,1-1.647,0l-14.965-1.948a.94.94,0,0,1-.816-.929V90.657A.923.923,0,0,1,16.593,89.954Zm8.152,25.1a.116.116,0,0,1-.106.068H21.8a.116.116,0,0,1-.106-.165l1.364-2.966,2.917.38ZM48.669,110.1,33.7,112.052a6.4,6.4,0,0,1-1.647,0L17.091,110.1a1.1,1.1,0,0,1-.816-1.355,2.027,2.027,0,0,0,.673.212l14.966,1.948a7.5,7.5,0,0,0,1.932,0l14.966-1.948a2.024,2.024,0,0,0,.672-.212C49.553,109.335,49.347,110.016,48.669,110.1Z" transform="translate(-15.172 -78.582)" fill="#707070"/>
      <path id="Path_1515" data-name="Path 1515" d="M93.585,178.031a11.143,11.143,0,0,1,4.6-.532,7.521,7.521,0,0,1,4.127,1.613.551.551,0,0,0,.786-.774,8.383,8.383,0,0,0-4.772-1.933,12.138,12.138,0,0,0-5.117.59.551.551,0,0,0,.379,1.036Z" transform="translate(-87.133 -163.366)" fill="#707070"/>
      <path id="Path_1516" data-name="Path 1516" d="M139.4,136.981a8.505,8.505,0,0,1,1.386.058,10.609,10.609,0,0,1,1.552.315.551.551,0,1,0,.3-1.06,11.7,11.7,0,0,0-1.714-.349,9.616,9.616,0,0,0-1.566-.067.551.551,0,1,0,.04,1.1Z" transform="translate(-129.736 -125.882)" fill="#707070"/>
      <path id="Path_1517" data-name="Path 1517" d="M146.711,216.885a9.236,9.236,0,0,0-1.082-.073h-.006a.551.551,0,0,0-.005,1.1,8.139,8.139,0,0,1,.952.064,7.522,7.522,0,0,1,4.127,1.613.551.551,0,1,0,.786-.774A8.383,8.383,0,0,0,146.711,216.885Z" transform="translate(-135.521 -200.87)" fill="#707070"/>
      <path id="Path_1518" data-name="Path 1518" d="M94.507,220.745a11.072,11.072,0,0,0-1.3.362.551.551,0,0,0,.379,1.036,10.208,10.208,0,0,1,1.158-.321.551.551,0,0,0-.238-1.077Z" transform="translate(-87.135 -204.502)" fill="#707070"/>
      <path id="Path_1519" data-name="Path 1519" d="M93.585,258.965a11.144,11.144,0,0,1,4.6-.532,7.522,7.522,0,0,1,4.127,1.613.551.551,0,1,0,.786-.774,8.383,8.383,0,0,0-4.772-1.933,12.137,12.137,0,0,0-5.117.59.551.551,0,0,0,.379,1.036Z" transform="translate(-87.133 -238.349)" fill="#707070"/>
      <path id="Path_1520" data-name="Path 1520" d="M280.236,260.21a.553.553,0,0,0,.39-.16,7.517,7.517,0,0,1,4.13-1.615,11.2,11.2,0,0,1,4.6.532.551.551,0,0,0,.379-1.036,12.144,12.144,0,0,0-5.117-.59,8.383,8.383,0,0,0-4.772,1.933.551.551,0,0,0,.393.937Z" transform="translate(-260.236 -238.35)" fill="#707070"/>
      <path id="Path_1521" data-name="Path 1521" d="M261.827,2.239h.585v.585a.551.551,0,0,0,1.1,0V2.239h.585a.551.551,0,0,0,0-1.1h-.585V.551a.551.551,0,0,0-1.1,0v.585h-.585a.551.551,0,0,0,0,1.1Z" transform="translate(-243.181 0)" fill="#707070"/>
      <path id="Path_1522" data-name="Path 1522" d="M243.833,61.23a.552.552,0,1,0-.552-.552A.552.552,0,0,0,243.833,61.23Z" transform="translate(-226.509 -55.705)" fill="#707070"/>
      <circle id="Ellipse_342" data-name="Ellipse 342" cx="0.552" cy="0.552" r="0.552" transform="translate(22.892 2.824)" fill="#707070"/>
      <path id="Path_1523" data-name="Path 1523" d="M392.42,142.014a.551.551,0,0,0,.551-.551v-4.525a.551.551,0,0,0-1.1,0v4.525A.552.552,0,0,0,392.42,142.014Z" transform="translate(-364.17 -126.358)" fill="#707070"/>
      <path id="Path_1524" data-name="Path 1524" d="M293.878,156.4h2.191a1.819,1.819,0,0,0,1.817-1.817v-1.641a.551.551,0,1,0-1.1,0v1.641a.715.715,0,0,1-.714.714h-2.191a.715.715,0,0,1-.714-.714v-1.641a.551.551,0,1,0-1.1,0v1.641A1.819,1.819,0,0,0,293.878,156.4Z" transform="translate(-271.702 -141.183)" fill="#707070"/>
      <path id="Path_1525" data-name="Path 1525" d="M324.166,223.5a.552.552,0,1,0,.552-.552A.552.552,0,0,0,324.166,223.5Z" transform="translate(-301.446 -206.557)" fill="#707070"/>
    </g>
  </g>
</svg>
