<svg xmlns="http://www.w3.org/2000/svg" width="76.497" height="75.13" viewBox="0 0 76.497 75.13">
  <g id="Group_1199" data-name="Group 1199" transform="translate(0)">
    <path id="Path_1511" data-name="Path 1511" d="M-223.335,33.091A38.292,38.292,0,0,1-261.583-5.158H-258a34.708,34.708,0,0,0,34.668,34.669A34.708,34.708,0,0,0-188.666-5.158h3.58A38.293,38.293,0,0,1-223.335,33.091Z" transform="translate(261.583 42.039)" fill="#fcc013"/>
    <g id="Group_325" data-name="Group 325" transform="translate(1.193)">
      <path id="Path_1512" data-name="Path 1512" d="M-185.473-29.914h-1.193a35.9,35.9,0,0,0-35.862-35.861A35.9,35.9,0,0,0-258.39-29.914h-1.193a37.1,37.1,0,0,1,37.055-37.054A37.1,37.1,0,0,1-185.473-29.914Z" transform="translate(259.583 66.968)" fill="#b9b9b9"/>
    </g>
    <g id="Group_336" data-name="Group 336" transform="translate(18.334 25.473)">
      <path id="Path_1513" data-name="Path 1513" d="M39.054,238.27H38.5a4.913,4.913,0,0,0-3.584-8.277H32.6a4.9,4.9,0,0,0-1.276.169,4.256,4.256,0,0,0-1.072-3.541l-4-4.336a17.858,17.858,0,0,0-9.553-5.4.778.778,0,0,0-.315,1.523,16.311,16.311,0,0,1,8.725,4.934l4,4.336a2.7,2.7,0,0,1-1.981,4.526h-4.19l-.649-.746,2.281-1.017a.778.778,0,1,0-.634-1.421l-3.242,1.446a.778.778,0,0,0-.27,1.221l3.736,4.291-1.214,1.892-4.229-3.7a3.993,3.993,0,0,1,.426-6.337L21.922,226a.778.778,0,1,0-.858-1.3l-2.779,1.837a5.47,5.47,0,0,0-.809.654l-1.927-2.908a.778.778,0,1,0-1.3.859l2.228,3.363a5.535,5.535,0,0,0,1.213,6.837l.832.727a4.474,4.474,0,0,1-4.68,1.956l-7.469-1.549v-3.421l7.148.7a.778.778,0,1,0,.151-1.548l-2.1-.206-3.306-5.335a5.634,5.634,0,0,1,1.829-7.76.778.778,0,0,0-.819-1.323,7.189,7.189,0,0,0-2.332,9.9l2.68,4.325-3.95-.386a.775.775,0,0,0-.562.169l-1.444-.267a2.466,2.466,0,0,0-2.836,1.823l-.724,2.889A3.452,3.452,0,0,0,.354,238.4a.778.778,0,0,0,.428,1.427H39.055a.778.778,0,1,0,0-1.556Zm-.778-3.36a3.361,3.361,0,0,1-1.605,2.864l-2.135-6.225h.38A3.364,3.364,0,0,1,38.276,234.91Zm-11.149-1.151a4.218,4.218,0,0,0,.706-.061,4.9,4.9,0,0,0-.122,1.743,5.3,5.3,0,0,0-1.795-.313h-.432l-1.192-1.369Zm-6.086,4.512H18.637a6.024,6.024,0,0,0,1.069-1.168Zm-16.481-.462.479-.157a.776.776,0,0,0,.4.22l1.921.4H4.482A2.119,2.119,0,0,0,4.561,237.808Zm-2.944-1.392.724-2.889a.908.908,0,0,1,1.044-.671l1.436.266v2.965l-1.272.416a.856.856,0,0,0-.561,1.029.59.59,0,0,1-.571.74.593.593,0,0,1-.471-.234,1.907,1.907,0,0,1-.33-1.621Zm22.92,1.855,1.018-1.587h.361a3.758,3.758,0,0,1,3.066,1.587Zm8.061,0a3.36,3.36,0,1,1,0-6.721h.292l2.3,6.709C35.1,238.266,32.6,238.27,32.6,238.27Z" transform="translate(-0.003 -216.511)" fill="#707070"/>
      <circle id="Ellipse_341" data-name="Ellipse 341" cx="0.778" cy="0.778" r="0.778" transform="translate(12.272 0)" fill="#707070"/>
    </g>
  </g>
</svg>
